<svg width="392" height="70" viewBox="0 0 392 70" fill="none" xmlns="http://www.w3.org/2000/svg">
<path d="M356.87 31.9565L361.435 70L391.87 52.5V17.5L356.87 31.9565Z" fill="#FB992D"/>
<path d="M361.435 30.4348V70L331 52.5V17.5L361.435 30.4348Z" fill="#FFB739"/>
<path d="M331 17.5L341.639 23.6172L361.796 17.6948L372.073 6.11633L361.435 0L331 17.5Z" fill="#FB992D"/>
<path d="M350.798 28.8832L361.435 35L391.87 17.5L381.233 11.3823L360.926 17.3903L350.798 28.8832Z" fill="#F67A21"/>
<path d="M350.798 44.1005L341.639 38.8346V23.6172L350.467 24.3067L350.798 28.8832V44.1005Z" fill="#FFEAC3"/>
<path d="M341.639 23.6172L372.073 6.11633L381.233 11.3823L350.798 28.8832L341.639 23.6172Z" fill="#FFD488"/>
<path d="M1.5 26H21L22.5 29H3L1.5 26ZM3.5 32H23L24.5 35H5L3.5 32ZM36 48C37.66 48 39 46.66 39 45C39 43.34 37.66 42 36 42C34.34 42 33 43.34 33 45C33 46.66 34.34 48 36 48ZM39 30H34V35H42.92L39 30ZM16 48C17.66 48 19 46.66 19 45C19 43.34 17.66 42 16 42C14.34 42 13 43.34 13 45C13 46.66 14.34 48 16 48ZM40 27L46 35V45H42C42 48.32 39.32 51 36 51C32.68 51 30 48.32 30 45H22C22 48.32 19.3 51 16 51C12.68 51 10 48.32 10 45H6V38H10V41H11.52C12.62 39.78 14.22 39 16 39C17.78 39 19.38 39.78 20.48 41H30V23H6C6 20.78 7.78 19 10 19H34V27H40Z" fill="#121214"/>
<path d="M85.5234 51H78.0938L78.1406 45.5156H85.5234C87.3672 45.5156 88.9219 45.1016 90.1875 44.2734C91.4531 43.4297 92.4062 42.2031 93.0469 40.5938C93.7031 38.9844 94.0312 37.0391 94.0312 34.7578V33.0938C94.0312 31.3438 93.8438 29.8047 93.4688 28.4766C93.1094 27.1484 92.5703 26.0312 91.8516 25.125C91.1328 24.2188 90.25 23.5391 89.2031 23.0859C88.1562 22.6172 86.9531 22.3828 85.5938 22.3828H77.9531V16.875H85.5938C87.875 16.875 89.9609 17.2656 91.8516 18.0469C93.7578 18.8125 95.4062 19.9141 96.7969 21.3516C98.1875 22.7891 99.2578 24.5078 100.008 26.5078C100.773 28.4922 101.156 30.7031 101.156 33.1406V34.7578C101.156 37.1797 100.773 39.3906 100.008 41.3906C99.2578 43.3906 98.1875 45.1094 96.7969 46.5469C95.4219 47.9688 93.7734 49.0703 91.8516 49.8516C89.9453 50.6172 87.8359 51 85.5234 51ZM82.0781 16.875V51H75.0469V16.875H82.0781ZM117.516 51.4688C115.547 51.4688 113.781 51.1562 112.219 50.5312C110.656 49.8906 109.328 49.0078 108.234 47.8828C107.156 46.7578 106.328 45.4531 105.75 43.9688C105.172 42.4688 104.883 40.875 104.883 39.1875V38.25C104.883 36.3281 105.156 34.5703 105.703 32.9766C106.25 31.3828 107.031 30 108.047 28.8281C109.078 27.6562 110.328 26.7578 111.797 26.1328C113.266 25.4922 114.922 25.1719 116.766 25.1719C118.562 25.1719 120.156 25.4688 121.547 26.0625C122.938 26.6562 124.102 27.5 125.039 28.5938C125.992 29.6875 126.711 31 127.195 32.5312C127.68 34.0469 127.922 35.7344 127.922 37.5938V40.4062H107.766V35.9062H121.289V35.3906C121.289 34.4531 121.117 33.6172 120.773 32.8828C120.445 32.1328 119.945 31.5391 119.273 31.1016C118.602 30.6641 117.742 30.4453 116.695 30.4453C115.805 30.4453 115.039 30.6406 114.398 31.0312C113.758 31.4219 113.234 31.9688 112.828 32.6719C112.438 33.375 112.141 34.2031 111.938 35.1562C111.75 36.0938 111.656 37.125 111.656 38.25V39.1875C111.656 40.2031 111.797 41.1406 112.078 42C112.375 42.8594 112.789 43.6016 113.32 44.2266C113.867 44.8516 114.523 45.3359 115.289 45.6797C116.07 46.0234 116.953 46.1953 117.938 46.1953C119.156 46.1953 120.289 45.9609 121.336 45.4922C122.398 45.0078 123.312 44.2812 124.078 43.3125L127.359 46.875C126.828 47.6406 126.102 48.375 125.18 49.0781C124.273 49.7812 123.18 50.3594 121.898 50.8125C120.617 51.25 119.156 51.4688 117.516 51.4688ZM138.891 15V51H132.117V15H138.891ZM151.594 25.6406V51H144.82V25.6406H151.594ZM144.398 19.0312C144.398 18.0469 144.742 17.2344 145.43 16.5938C146.117 15.9531 147.039 15.6328 148.195 15.6328C149.336 15.6328 150.25 15.9531 150.938 16.5938C151.641 17.2344 151.992 18.0469 151.992 19.0312C151.992 20.0156 151.641 20.8281 150.938 21.4688C150.25 22.1094 149.336 22.4297 148.195 22.4297C147.039 22.4297 146.117 22.1094 145.43 21.4688C144.742 20.8281 144.398 20.0156 144.398 19.0312ZM165.797 46.0781L171.422 25.6406H178.477L169.922 51H165.656L165.797 46.0781ZM161.93 25.6406L167.578 46.1016L167.695 51H163.406L154.852 25.6406H161.93ZM192.844 51.4688C190.875 51.4688 189.109 51.1562 187.547 50.5312C185.984 49.8906 184.656 49.0078 183.562 47.8828C182.484 46.7578 181.656 45.4531 181.078 43.9688C180.5 42.4688 180.211 40.875 180.211 39.1875V38.25C180.211 36.3281 180.484 34.5703 181.031 32.9766C181.578 31.3828 182.359 30 183.375 28.8281C184.406 27.6562 185.656 26.7578 187.125 26.1328C188.594 25.4922 190.25 25.1719 192.094 25.1719C193.891 25.1719 195.484 25.4688 196.875 26.0625C198.266 26.6562 199.43 27.5 200.367 28.5938C201.32 29.6875 202.039 31 202.523 32.5312C203.008 34.0469 203.25 35.7344 203.25 37.5938V40.4062H183.094V35.9062H196.617V35.3906C196.617 34.4531 196.445 33.6172 196.102 32.8828C195.773 32.1328 195.273 31.5391 194.602 31.1016C193.93 30.6641 193.07 30.4453 192.023 30.4453C191.133 30.4453 190.367 30.6406 189.727 31.0312C189.086 31.4219 188.562 31.9688 188.156 32.6719C187.766 33.375 187.469 34.2031 187.266 35.1562C187.078 36.0938 186.984 37.125 186.984 38.25V39.1875C186.984 40.2031 187.125 41.1406 187.406 42C187.703 42.8594 188.117 43.6016 188.648 44.2266C189.195 44.8516 189.852 45.3359 190.617 45.6797C191.398 46.0234 192.281 46.1953 193.266 46.1953C194.484 46.1953 195.617 45.9609 196.664 45.4922C197.727 45.0078 198.641 44.2812 199.406 43.3125L202.688 46.875C202.156 47.6406 201.43 48.375 200.508 49.0781C199.602 49.7812 198.508 50.3594 197.227 50.8125C195.945 51.25 194.484 51.4688 192.844 51.4688ZM213.844 31.1719V51H207.094V25.6406H213.445L213.844 31.1719ZM221.484 25.4766L221.367 31.7344C221.039 31.6875 220.641 31.6484 220.172 31.6172C219.719 31.5703 219.305 31.5469 218.93 31.5469C217.977 31.5469 217.148 31.6719 216.445 31.9219C215.758 32.1562 215.18 32.5078 214.711 32.9766C214.258 33.4453 213.914 34.0156 213.68 34.6875C213.461 35.3594 213.336 36.125 213.305 36.9844L211.945 36.5625C211.945 34.9219 212.109 33.4141 212.438 32.0391C212.766 30.6484 213.242 29.4375 213.867 28.4062C214.508 27.375 215.289 26.5781 216.211 26.0156C217.133 25.4531 218.188 25.1719 219.375 25.1719C219.75 25.1719 220.133 25.2031 220.523 25.2656C220.914 25.3125 221.234 25.3828 221.484 25.4766ZM232.617 48.1406L239.344 25.6406H246.586L236.391 54.8203C236.172 55.4609 235.875 56.1484 235.5 56.8828C235.141 57.6172 234.648 58.3125 234.023 58.9688C233.414 59.6406 232.641 60.1875 231.703 60.6094C230.781 61.0312 229.648 61.2422 228.305 61.2422C227.664 61.2422 227.141 61.2031 226.734 61.125C226.328 61.0469 225.844 60.9375 225.281 60.7969V55.8516C225.453 55.8516 225.633 55.8516 225.82 55.8516C226.008 55.8672 226.188 55.875 226.359 55.875C227.25 55.875 227.977 55.7734 228.539 55.5703C229.102 55.3672 229.555 55.0547 229.898 54.6328C230.242 54.2266 230.516 53.6953 230.719 53.0391L232.617 48.1406ZM229.805 25.6406L235.312 44.0156L236.273 51.1641L231.68 51.6562L222.562 25.6406H229.805Z" fill="#737380"/>
<path d="M256.734 16.875V51H249.703V16.875H256.734ZM270.328 31.4531V36.9375H254.812V31.4531H270.328ZM271.969 16.875V22.3828H254.812V16.875H271.969ZM283.523 16.875V51H276.516V16.875H283.523ZM304.664 16.875V51H297.656V16.875H304.664ZM315.164 16.875V22.3828H287.32V16.875H315.164Z" fill="#A8A8B3"/>
</svg>
